<svg width="166" height="64" viewBox="0 0 166 64" fill="none" xmlns="http://www.w3.org/2000/svg">
<path d="M31.418 51.8594C42.3164 51.8594 51.3398 42.8164 51.3398 31.9375C51.3398 21.0391 42.2969 12.0156 31.3984 12.0156C20.5195 12.0156 11.4961 21.0391 11.4961 31.9375C11.4961 42.8164 20.5391 51.8594 31.418 51.8594ZM26.9453 24.5938C26.9453 22.1523 28.9375 20.1406 31.3984 20.1406C33.8594 20.1406 35.8516 22.1523 35.8516 24.5938C35.8516 26.6055 34.543 28.2852 32.7266 28.832V38.6367C32.7266 41.5469 32.2969 44.0469 31.3984 44.0469C30.5195 44.0469 30.0508 41.5078 30.0508 38.6367V28.832C28.2539 28.2656 26.9453 26.5859 26.9453 24.5938ZM28.8398 23.4609C28.8398 24.2031 29.5039 24.8672 30.2461 24.8672C31.0273 24.8672 31.6719 24.2031 31.6719 23.4609C31.6719 22.6797 31.0273 22.0156 30.2461 22.0156C29.5039 22.0156 28.8203 22.6797 28.8398 23.4609Z" fill="#42FF82"/>
<path d="M75.0646 40V37.894H68.2426V34.546H73.7686V32.494H68.2426V29.2H74.7586V27.166H65.9566V40H75.0646ZM89.4114 37.12L90.4194 40H92.8134L88.0434 27.166H85.5954L80.9334 40H83.3454L84.3174 37.12H89.4114ZM84.9834 35.122L86.6934 30.082L86.8194 29.38L86.9454 30.082L88.7094 35.122H84.9834ZM101.272 35.338H103.756C105.466 35.338 106.078 35.914 106.078 37.408V39.28C106.078 39.568 106.168 39.874 106.33 40H108.832C108.634 39.856 108.544 39.622 108.544 39.316V37.372C108.544 35.554 107.932 34.654 106.636 34.24C108.058 33.754 108.832 32.746 108.832 31.036C108.832 28.678 107.428 27.166 103.936 27.166H98.9324V40H101.272V35.338ZM101.272 29.182H103.882C105.664 29.182 106.42 29.92 106.42 31.198C106.42 32.566 105.484 33.304 103.846 33.304H101.272V29.182ZM120.63 29.254H124.302V27.166H114.708V29.254H118.236V40H120.63V29.254ZM138.701 34.708V40H141.041V27.166H138.701V32.458H133.229V27.166H130.871V40H133.229V34.708H138.701Z" fill="#42FF82"/>
</svg>
