<svg width="166" height="64" viewBox="0 0 166 64" fill="none" xmlns="http://www.w3.org/2000/svg">
<path d="M31.418 51.8594C42.3164 51.8594 51.3398 42.8164 51.3398 31.9375C51.3398 21.0391 42.2969 12.0156 31.3984 12.0156C20.5195 12.0156 11.4961 21.0391 11.4961 31.9375C11.4961 42.8164 20.5391 51.8594 31.418 51.8594ZM26.9453 24.5938C26.9453 22.1523 28.9375 20.1406 31.3984 20.1406C33.8594 20.1406 35.8516 22.1523 35.8516 24.5938C35.8516 26.6055 34.543 28.2852 32.7266 28.832V38.6367C32.7266 41.5469 32.2969 44.0469 31.3984 44.0469C30.5195 44.0469 30.0508 41.5078 30.0508 38.6367V28.832C28.2539 28.2656 26.9453 26.5859 26.9453 24.5938ZM28.8398 23.4609C28.8398 24.2031 29.5039 24.8672 30.2461 24.8672C31.0273 24.8672 31.6719 24.2031 31.6719 23.4609C31.6719 22.6797 31.0273 22.0156 30.2461 22.0156C29.5039 22.0156 28.8203 22.6797 28.8398 23.4609Z" fill="url(#paint0_radial)"/>
<path d="M74.1461 40V37.192H65.0501V32.728H72.4181V29.992H65.0501V25.6H73.7381V22.888H62.0021V40H74.1461ZM87.9952 36.16L89.3392 40H92.5312L86.1712 22.888H82.9072L76.6912 40H79.9072L81.2032 36.16H87.9952ZM82.0912 33.496L84.3712 26.776L84.5392 25.84L84.7072 26.776L87.0592 33.496H82.0912ZM98.5299 33.784H101.842C104.122 33.784 104.938 34.552 104.938 36.544V39.04C104.938 39.424 105.058 39.832 105.274 40H108.61C108.346 39.808 108.226 39.496 108.226 39.088V36.496C108.226 34.072 107.41 32.872 105.682 32.32C107.578 31.672 108.61 30.328 108.61 28.048C108.61 24.904 106.738 22.888 102.082 22.888H95.4099V40H98.5299V33.784ZM98.5299 25.576H102.01C104.386 25.576 105.394 26.56 105.394 28.264C105.394 30.088 104.146 31.072 101.962 31.072H98.5299V25.576ZM119.06 25.672H123.956V22.888H111.164V25.672H115.868V40H119.06V25.672ZM137.875 32.944V40H140.995V22.888H137.875V29.944H130.579V22.888H127.435V40H130.579V32.944H137.875Z" fill="#42FF82"/>
<defs>
<radialGradient id="paint0_radial" cx="0" cy="0" r="1" gradientUnits="userSpaceOnUse" gradientTransform="translate(31.5 32) rotate(90) scale(24 23.5)">
<stop stop-color="#42FF82"/>
<stop offset="1" stop-color="#42FF82" stop-opacity="0"/>
</radialGradient>
</defs>
</svg>
